HIERARCHY
ROOT Hips
{
    OFFSET 0.000000 0.000000 0.000000
    CHANNELS 6 Xposition Yposition Zposition Zrotation Xrotation Yrotation
    JOINT Spine
    {
        OFFSET 0.000005 7.982487 0.000007
        CHANNELS 3 Zrotation Xrotation Yrotation
        JOINT Spine1
        {
            OFFSET -0.000008 23.674410 -0.000012
            CHANNELS 3 Zrotation Xrotation Yrotation
            JOINT Neck
            {
                OFFSET -0.000001 27.576822 -0.000003
                CHANNELS 3 Zrotation Xrotation Yrotation
                JOINT Head
                {
                    OFFSET 0.000004 17.278074 2.035177
                    CHANNELS 3 Zrotation Xrotation Yrotation
                    End Site
                    {
                        OFFSET 0.000000 20.351660 0.000000
                    }
                }
            }
            JOINT LeftShoulder
            {
                OFFSET 4.036571 20.304852 -0.371907
                CHANNELS 3 Zrotation Xrotation Yrotation
                JOINT LeftArm
                {
                    OFFSET 12.502554 0.000006 0.000005
                    CHANNELS 3 Zrotation Xrotation Yrotation
                    JOINT LeftForeArm
                    {
                        OFFSET 31.806923 0.000000 0.000000
                        CHANNELS 3 Zrotation Xrotation Yrotation
                        JOINT LeftHand
                        {
                            OFFSET 24.843233 0.000001 0.000000
                            CHANNELS 3 Zrotation Xrotation Yrotation
                            JOINT LeftHandThumb1
                            {
                                OFFSET 2.126752 -2.416754 3.383466
                                CHANNELS 3 Zrotation Xrotation Yrotation
                                JOINT LeftHandThumb2
                                {
                                    OFFSET 3.212140 0.000000 -0.000003
                                    CHANNELS 3 Zrotation Xrotation Yrotation
                                    JOINT LeftHandThumb3
                                    {
                                        OFFSET 2.745435 0.000002 0.000008
                                        CHANNELS 3 Zrotation Xrotation Yrotation
                                        End Site
                                        {
                                            OFFSET 2.793713 0.000000 0.000000
                                        }
                                    }
                                }
                            }
                            JOINT LeftHandIndex1
                            {
                                OFFSET 8.700333 -0.000002 3.383461
                                CHANNELS 3 Zrotation Xrotation Yrotation
                                JOINT LeftHandIndex2
                                {
                                    OFFSET 4.833514 -0.000005 0.000004
                                    CHANNELS 3 Zrotation Xrotation Yrotation
                                    JOINT LeftHandIndex3
                                    {
                                        OFFSET 2.416764 0.000004 -0.000007
                                        CHANNELS 3 Zrotation Xrotation Yrotation
                                        End Site
                                        {
                                            OFFSET 2.459254 0.000000 0.000000
                                        }
                                    }
                                }
                            }
                            JOINT LeftHandMiddle1
                            {
                                OFFSET 8.700328 -0.000006 1.121379
                                CHANNELS 3 Zrotation Xrotation Yrotation
                                JOINT LeftHandMiddle2
                                {
                                    OFFSET 5.316864 -0.000007 0.000004
                                    CHANNELS 3 Zrotation Xrotation Yrotation
                                    JOINT LeftHandMiddle3
                                    {
                                        OFFSET 2.900116 0.000004 0.000005
                                        CHANNELS 3 Zrotation Xrotation Yrotation
                                        End Site
                                        {
                                            OFFSET 2.951103 0.000000 0.000000
                                        }
                                    }
                                }
                            }
                            JOINT LeftHandRing1
                            {
                                OFFSET 8.216979 -0.000004 -1.121373
                                CHANNELS 3 Zrotation Xrotation Yrotation
                                JOINT LeftHandRing2
                                {
                                    OFFSET 4.833515 -0.000005 0.000004
                                    CHANNELS 3 Zrotation Xrotation Yrotation
                                    JOINT LeftHandRing3
                                    {
                                        OFFSET 2.416764 0.000005 -0.000007
                                        CHANNELS 3 Zrotation Xrotation Yrotation
                                        End Site
                                        {
                                            OFFSET 2.459254 0.000000 0.000000
                                        }
                                    }
                                }
                            }
                            JOINT LeftHandPinky1
                            {
                                OFFSET 7.733625 -0.000007 -3.383456
                                CHANNELS 3 Zrotation Xrotation Yrotation
                                JOINT LeftHandPinky2
                                {
                                    OFFSET 3.866815 -0.000002 0.000004
                                    CHANNELS 3 Zrotation Xrotation Yrotation
                                    JOINT LeftHandPinky3
                                    {
                                        OFFSET 1.933414 0.000008 -0.000005
                                        CHANNELS 3 Zrotation Xrotation Yrotation
                                        End Site
                                        {
                                            OFFSET 1.967405 0.000000 0.000000
                                        }
                                    }
                                }
                            }
                        }
                    }
                }
            }
            JOINT RightShoulder
            {
                OFFSET -4.036570 20.304853 -0.371910
                CHANNELS 3 Zrotation Xrotation Yrotation
                JOINT RightArm
                {
                    OFFSET -12.502556 0.000005 -0.000008
                    CHANNELS 3 Zrotation Xrotation Yrotation
                    JOINT RightForeArm
                    {
                        OFFSET -31.806913 0.000006 -0.000009
                        CHANNELS 3 Zrotation Xrotation Yrotation
                        JOINT RightHand
                        {
                            OFFSET -24.843220 0.000001 -0.000006
                            CHANNELS 3 Zrotation Xrotation Yrotation
                            JOINT RightHandThumb1
                            {
                                OFFSET -2.126750 -2.416762 3.383462
                                CHANNELS 3 Zrotation Xrotation Yrotation
                                JOINT RightHandThumb2
                                {
                                    OFFSET -3.212135 -0.000003 0.000001
                                    CHANNELS 3 Zrotation Xrotation Yrotation
                                    JOINT RightHandThumb3
                                    {
                                        OFFSET -2.745442 -0.000002 0.000002
                                        CHANNELS 3 Zrotation Xrotation Yrotation
                                        End Site
                                        {
                                            OFFSET -2.793713 0.000000 0.000000
                                        }
                                    }
                                }
                            }
                            JOINT RightHandIndex1
                            {
                                OFFSET -8.700327 0.000005 3.383456
                                CHANNELS 3 Zrotation Xrotation Yrotation
                                JOINT RightHandIndex2
                                {
                                    OFFSET -4.833513 -0.000001 -0.000007
                                    CHANNELS 3 Zrotation Xrotation Yrotation
                                    JOINT RightHandIndex3
                                    {
                                        OFFSET -2.416767 -0.000005 0.000002
                                        CHANNELS 3 Zrotation Xrotation Yrotation
                                        End Site
                                        {
                                            OFFSET -2.459254 0.000000 0.000000
                                        }
                                    }
                                }
                            }
                            JOINT RightHandMiddle1
                            {
                                OFFSET -8.700325 0.000010 1.121373
                                CHANNELS 3 Zrotation Xrotation Yrotation
                                JOINT RightHandMiddle2
                                {
                                    OFFSET -5.316871 -0.000001 -0.000004
                                    CHANNELS 3 Zrotation Xrotation Yrotation
                                    JOINT RightHandMiddle3
                                    {
                                        OFFSET -2.900104 0.000004 -0.000005
                                        CHANNELS 3 Zrotation Xrotation Yrotation
                                        End Site
                                        {
                                            OFFSET -2.951103 0.000000 0.000000
                                        }
                                    }
                                }
                            }
                            JOINT RightHandRing1
                            {
                                OFFSET -8.216980 0.000000 -1.121377
                                CHANNELS 3 Zrotation Xrotation Yrotation
                                JOINT RightHandRing2
                                {
                                    OFFSET -4.833513 0.000000 -0.000007
                                    CHANNELS 3 Zrotation Xrotation Yrotation
                                    JOINT RightHandRing3
                                    {
                                        OFFSET -2.416767 -0.000005 0.000001
                                        CHANNELS 3 Zrotation Xrotation Yrotation
                                        End Site
                                        {
                                            OFFSET -2.459254 0.000000 0.000000
                                        }
                                    }
                                }
                            }
                            JOINT RightHandPinky1
                            {
                                OFFSET -7.733623 0.000009 -3.383465
                                CHANNELS 3 Zrotation Xrotation Yrotation
                                JOINT RightHandPinky2
                                {
                                    OFFSET -3.866819 0.000000 0.000003
                                    CHANNELS 3 Zrotation Xrotation Yrotation
                                    JOINT RightHandPinky3
                                    {
                                        OFFSET -1.933409 -0.000003 -0.000004
                                        CHANNELS 3 Zrotation Xrotation Yrotation
                                        End Site
                                        {
                                            OFFSET -1.967405 0.000000 0.000000
                                        }
                                    }
                                }
                            }
                        }
                    }
                }
            }
        }
    }
    JOINT LeftUpLeg
    {
        OFFSET 10.175824 0.000004 -0.000004
        CHANNELS 3 Zrotation Xrotation Yrotation
        JOINT LeftLeg
        {
            OFFSET 0.000005 -42.882954 0.000006
            CHANNELS 3 Zrotation Xrotation Yrotation
            JOINT LeftFoot
            {
                OFFSET -0.000004 -39.006775 -0.000003
                CHANNELS 3 Zrotation Xrotation Yrotation
                JOINT LeftToeBase
                {
                    OFFSET -0.000002 -6.614287 15.263733
                    CHANNELS 3 Zrotation Xrotation Yrotation
                    End Site
                    {
                        OFFSET 0.000000 0.000000 4.070332
                    }
                }
            }
        }
    }
    JOINT RightUpLeg
    {
        OFFSET -10.175824 -0.000004 0.000004
        CHANNELS 3 Zrotation Xrotation Yrotation
        JOINT RightLeg
        {
            OFFSET 0.000001 -42.882954 -0.000003
            CHANNELS 3 Zrotation Xrotation Yrotation
            JOINT RightFoot
            {
                OFFSET 0.000002 -39.006771 0.000004
                CHANNELS 3 Zrotation Xrotation Yrotation
                JOINT RightToeBase
                {
                    OFFSET 0.000008 -6.614288 15.263751
                    CHANNELS 3 Zrotation Xrotation Yrotation
                    End Site
                    {
                        OFFSET 0.000000 0.000000 4.070332
                    }
                }
            }
        }
    }
}
MOTION
Frames:    4
Frame Time:    0.002778
-12.386012    82.830727    223.476196    3.696207    -9.080222    -28.167545    0.299968    6.840559    -5.324781    1.499835    6.838331    -5.467679    0.469369    10.248551    8.739851    0.469370    10.248553    8.739851    -8.549586    -2.062135    1.428454    -46.532871    33.077263    -36.933033    -13.342745    -0.132248    -145.569092    12.838988    4.263468    18.388197    47.448215    38.866432    -34.355042    -34.999996    -0.000001    0.000002    -0.000000    0.000000    -0.000000    0.000003    9.999996    0.000001    -0.000000    0.000000    -0.000000    -0.000000    0.000000    -0.000000    -0.000000    0.000000    -0.000000    -0.000000    0.000000    -0.000000    -0.000000    0.000000    -0.000000    -0.000000    0.000000    -0.000000    -0.000000    0.000000    -0.000000    -0.000000    0.000000    -0.000000    0.000002    -9.999995    0.000000    -0.000000    0.000000    -0.000000    -0.000000    0.000000    -0.000000    -1.958228    -1.117225    2.584736    33.967381    15.813148    16.779486    -14.435644    -15.514083    72.918800    6.371934    -3.177873    -27.196537    -47.448212    38.866428    34.355026    34.999996    0.000003    0.000002    -0.000000    0.000000    -0.000000    -0.000003    10.000003    -0.000004    -0.000000    0.000000    -0.000000    -0.000000    0.000000    -0.000000    -0.000000    0.000000    -0.000000    -0.000000    0.000000    -0.000000    -0.000000    0.000000    -0.000000    -0.000000    0.000000    -0.000000    -0.000000    0.000000    -0.000000    -0.000000    0.000000    -0.000000    -0.000001    -10.000004    0.000001    -0.000000    0.000000    -0.000000    -0.000000    0.000000    -0.000000    6.394797    0.663345    -2.709766    0.000006    53.958725    -0.000006    -13.696330    -40.375488    18.840826    0.000001    -2.756861    -0.000000    -17.919926    -32.562351    3.034647    -0.000002    66.543404    0.000006    18.559711    -26.880304    17.541389    -0.000001    -0.685728    0.000000    
-12.413227    82.952248    223.373169    3.778177    -9.013830    -28.031340    0.297116    6.816061    -5.166581    1.485573    6.813882    -5.307597    0.447406    10.246368    8.570590    0.447404    10.246367    8.570594    -8.597754    -2.128895    1.377733    -46.353287    32.970806    -37.086304    -13.405334    -0.116979    -145.702057    12.768909    4.224309    18.331190    47.448215    38.866428    -34.355042    -34.999996    -0.000001    0.000002    -0.000000    0.000000    -0.000000    -0.000003    10.000009    0.000000    -0.000000    0.000000    -0.000000    -0.000000    0.000000    -0.000000    -0.000000    0.000000    -0.000000    -0.000000    0.000000    -0.000000    -0.000000    0.000000    -0.000000    -0.000000    0.000000    -0.000000    -0.000000    0.000000    -0.000000    -0.000000    0.000000    -0.000000    -0.000001    -9.999990    0.000003    -0.000000    0.000000    -0.000000    -0.000000    0.000000    -0.000000    -2.007309    -1.215839    2.703421    33.345875    15.722182    17.346895    -13.613593    -15.807059    73.211731    6.418242    -3.172922    -26.925041    -47.448219    38.866432    34.355038    34.999996    -0.000004    0.000004    -0.000000    0.000000    -0.000000    -0.000002    10.000002    -0.000003    -0.000000    0.000000    -0.000000    -0.000000    0.000000    -0.000000    -0.000000    0.000000    -0.000000    -0.000000    0.000000    -0.000000    -0.000000    0.000000    -0.000000    -0.000000    0.000000    -0.000000    -0.000000    0.000000    -0.000000    -0.000000    0.000000    -0.000000    -0.000003    -9.999999    -0.000002    -0.000000    0.000000    -0.000000    -0.000000    0.000000    -0.000000    6.417618    0.537424    -2.744302    0.000000    53.743816    -0.000001    -13.579697    -40.077522    18.838810    0.000000    -2.773376    -0.000000    -17.929657    -32.510834    2.971498    0.000005    66.267067    -0.000002    18.528677    -26.771105    17.410297    0.000000    -0.701169    -0.000003    
-12.413227    82.952248    223.373169    3.846754    -8.973319    -27.907436    0.292715    6.808589    -5.017337    1.463606    6.806499    -5.156124    0.425820    10.251657    8.442936    0.425819    10.251656    8.442941    -8.615644    -2.225343    1.346398    -46.220890    32.885101    -37.207935    -13.521985    -0.079233    -145.846695    12.711217    4.190873    18.280964    47.448215    38.866432    -34.355042    -34.999996    -0.000002    0.000000    -0.000000    0.000000    -0.000000    0.000000    10.000005    -0.000000    -0.000000    0.000000    -0.000000    -0.000000    0.000000    -0.000000    -0.000000    0.000000    -0.000000    -0.000000    0.000000    -0.000000    -0.000000    0.000000    -0.000000    -0.000000    0.000000    -0.000000    -0.000000    0.000000    -0.000000    -0.000000    0.000000    -0.000000    -0.000002    -9.999994    0.000002    -0.000000    0.000000    -0.000000    -0.000000    0.000000    -0.000000    -2.100010    -1.440760    2.908953    32.891529    15.636781    17.758503    -13.072169    -16.028585    73.442612    6.484639    -3.170872    -26.628656    -47.448212    38.866440    34.355026    35.000000    0.000001    0.000006    -0.000000    0.000000    -0.000000    0.000001    10.000002    -0.000002    -0.000000    0.000000    -0.000000    -0.000000    0.000000    -0.000000    -0.000000    0.000000    -0.000000    -0.000000    0.000000    -0.000000    -0.000000    0.000000    -0.000000    -0.000000    0.000000    -0.000000    -0.000000    0.000000    -0.000000    -0.000000    0.000000    -0.000000    -0.000002    -10.000000    -0.000001    -0.000000    0.000000    -0.000000    -0.000000    0.000000    -0.000000    6.433224    0.442320    -2.788780    0.000003    53.549641    -0.000003    -13.522799    -39.826290    18.839218    -0.000000    -2.755551    0.000000    -17.938068    -32.457031    2.911366    0.000002    66.038231    0.000002    18.473135    -26.677788    17.293543    0.000001    -0.701598    -0.000002    
-12.470613    83.173080    223.175232    3.915233    -8.932660    -27.783587    0.288333    6.801105    -4.868096    1.441660    6.799058    -5.004655    0.404245    10.256997    8.315282    0.404245    10.256996    8.315286    -8.633593    -2.321781    1.315030    -46.088848    32.799171    -37.329231    -13.638535    -0.041193    -145.991257    12.653500    4.157486    18.230703    47.448212    38.866440    -34.355034    -34.999992    -0.000003    -0.000001    -0.000000    0.000000    -0.000000    0.000003    10.000003    -0.000000    -0.000000    0.000000    -0.000000    -0.000000    0.000000    -0.000000    -0.000000    0.000000    -0.000000    -0.000000    0.000000    -0.000000    -0.000000    0.000000    -0.000000    -0.000000    0.000000    -0.000000    -0.000000    0.000000    -0.000000    -0.000000    0.000000    -0.000000    -0.000002    -10.000000    0.000002    -0.000000    0.000000    -0.000000    -0.000000    0.000000    -0.000000    -2.191914    -1.666012    3.114144    32.438023    15.548243    18.169218    -12.529217    -16.248003    73.675926    6.551023    -3.168479    -26.332275    -47.448200    38.866440    34.355019    34.999989    0.000006    0.000008    -0.000000    0.000000    -0.000000    0.000004    10.000001    -0.000002    -0.000000    0.000000    -0.000000    -0.000000    0.000000    -0.000000    -0.000000    0.000000    -0.000000    -0.000000    0.000000    -0.000000    -0.000000    0.000000    -0.000000    -0.000000    0.000000    -0.000000    -0.000000    0.000000    -0.000000    -0.000000    0.000000    -0.000000    -0.000001    -10.000001    -0.000001    -0.000000    0.000000    -0.000000    -0.000000    0.000000    -0.000000    6.448755    0.347203    -2.833231    0.000005    53.355461    -0.000005    -13.466104    -39.575050    18.839306    -0.000001    -2.737727    0.000000    -17.946413    -32.403221    2.851280    -0.000000    65.809380    0.000007    18.417847    -26.584375    17.176985    0.000001    -0.702027    -0.000001    
